name Walk8.mot
datacolumns 19
datarows 17
range 3.82000000 3.90000000
endheader

                time	   L_ground_force_vx	   L_ground_force_vy	   L_ground_force_vz	   L_ground_force_px	   L_ground_force_py	   L_ground_force_pz	   R_ground_force_vx	   R_ground_force_vy	   R_ground_force_vz	   R_ground_force_px	   R_ground_force_py	   R_ground_force_pz	   L_ground_torque_x	   L_ground_torque_y	   L_ground_torque_z	   R_ground_torque_x	   R_ground_torque_y	   R_ground_torque_z	
          3.82000000	          0.06450598	          0.18026948	         -0.00633661	         -0.00025836	          0.00000000	         -0.00010248	        -18.66384582	        694.25236774	        -41.23071795	          0.25049890	          0.00000000	          0.05085790	          0.00000000	          0.00083338	          0.00000000	          0.00000000	          6.25405110	          0.00000000	
          3.82500000	          0.05112668	          0.13448588	         -0.00565066	         -0.00023597	          0.00000000	         -0.00009482	        -16.64278687	        689.92045872	        -40.57468035	          0.25064502	          0.00000000	          0.05050548	          0.00000000	          0.00067928	          0.00000000	          0.00000000	          5.85672915	          0.00000000	
          3.83000000	          0.03850330	          0.09448955	         -0.00476387	         -0.00020295	          0.00000000	         -0.00008240	        -14.70140172	        685.73458955	        -40.00580073	          0.25086243	          0.00000000	          0.05019211	          0.00000000	          0.00052674	          0.00000000	          0.00000000	          5.47482765	          0.00000000	
          3.83500000	          0.02736302	          0.06136769	         -0.00381843	         -0.00016572	          0.00000000	         -0.00006793	        -12.84747144	        681.68201598	        -39.55177804	          0.25116072	          0.00000000	          0.04992434	          0.00000000	          0.00038726	          0.00000000	          0.00000000	          5.11298650	          0.00000000	
          3.84000000	          0.01805489	          0.03527384	         -0.00291014	         -0.00012874	          0.00000000	         -0.00005327	        -11.08428844	        677.75841331	        -39.22580862	          0.25154654	          0.00000000	          0.04970653	          0.00000000	          0.00026718	          0.00000000	          0.00000000	          4.77366100	          0.00000000	
          3.84500000	          0.01065784	          0.01575063	         -0.00209752	         -0.00009484	          0.00000000	         -0.00003966	         -9.41026684	        673.96912736	        -39.02709457	          0.25202236	          0.00000000	          0.04954024	          0.00000000	          0.00016905	          0.00000000	          0.00000000	          4.45713073	          0.00000000	
          3.85000000	          0.00507135	          0.00198508	         -0.00141051	         -0.00006560	          0.00000000	         -0.00002780	         -7.81940389	        670.32579565	        -38.94224850	          0.25258707	          0.00000000	          0.04942482	          0.00000000	          0.00009275	          0.00000000	          0.00000000	          4.16178084	          0.00000000	
          3.85500000	          0.00108776	         -0.00699949	         -0.00085839	         -0.00004167	          0.00000000	         -0.00001799	         -6.30382380	        666.84498979	        -38.94875113	          0.25323849	          0.00000000	          0.04935835	          0.00000000	          0.00003649	          0.00000000	          0.00000000	          3.88443528	          0.00000000	
          3.86000000	         -0.00155287	         -0.01220754	         -0.00043644	         -0.00002302	          0.00000000	         -0.00001028	         -4.85610150	        663.54556530	        -39.01952039	          0.25397343	          0.00000000	          0.04933809	          0.00000000	         -0.00000248	          0.00000000	          0.00000000	          3.62088495	          0.00000000	
          3.86500000	         -0.00312344	         -0.01458190	         -0.00013133	         -0.00000924	          0.00000000	         -0.00000452	         -3.46984209	        660.44741843	        -39.12643355	          0.25478709	          0.00000000	          0.04936059	          0.00000000	         -0.00002727	          0.00000000	          0.00000000	          3.36711936	          0.00000000	
          3.87000000	         -0.00388359	         -0.01495128	          0.00007471	          0.00000032	          0.00000000	         -0.00000047	         -2.14062708	        657.57215540	        -39.24341500	          0.25567297	          0.00000000	          0.04942221	          0.00000000	         -0.00004102	          0.00000000	          0.00000000	          3.11994224	          0.00000000	
          3.87500000	         -0.00406391	         -0.01400569	          0.00020094	          0.00000643	          0.00000000	          0.00000217	         -0.86559747	        654.94182257	        -39.34865584	          0.25662432	          0.00000000	          0.04951960	          0.00000000	         -0.00004659	          0.00000000	          0.00000000	          2.87708176	          0.00000000	
          3.88000000	         -0.00385814	         -0.01229162	          0.00026599	          0.00000984	          0.00000000	          0.00000368	          0.35678277	        652.57655047	        -39.42620966	          0.25763644	          0.00000000	          0.04964983	          0.00000000	         -0.00004647	          0.00000000	          0.00000000	          2.63705727	          0.00000000	
          3.88500000	         -0.00342106	         -0.01022030	          0.00028667	          0.00001125	          0.00000000	          0.00000437	          1.52653206	        650.49310077	        -39.46715376	          0.25870767	          0.00000000	          0.04980978	          0.00000000	         -0.00004272	          0.00000000	          0.00000000	          2.39942319	          0.00000000	
          3.89000000	         -0.00287020	         -0.00808370	          0.00027726	          0.00001126	          0.00000000	          0.00000446	          2.64294431	        648.70725536	        -39.46957723	          0.25983760	          0.00000000	          0.04999669	          0.00000000	         -0.00003694	          0.00000000	          0.00000000	          2.16456285	          0.00000000	
          3.89500000	         -0.00228994	         -0.00607422	          0.00024930	          0.00001038	          0.00000000	          0.00000416	          3.70639232	        647.23445761	        -39.43814830	          0.26102677	          0.00000000	          0.05021040	          0.00000000	         -0.00003031	          0.00000000	          0.00000000	          1.93316359	          0.00000000	
          3.90000000	         -0.00173673	         -0.00430518	          0.00021165	          0.00000899	          0.00000000	          0.00000365	          4.71931775	        646.09069206	        -39.38520004	          0.26227729	          0.00000000	          0.05045339	          0.00000000	         -0.00002366	          0.00000000	          0.00000000	          1.70608044	          0.00000000	
